<svg xmlns="http://www.w3.org/2000/svg" viewBox="0 0 269.38 197.54"><defs><style>.cls-1{fill:#fff;}</style></defs><title>brain_white</title><g id="Layer_2" data-name="Layer 2"><g id="Layer_1-2" data-name="Layer 1"><path class="cls-1" d="M56.53,15.82l57.59-14.4a5,5,0,0,1,5.44,7.52L90.85,54.37c-1.43,2.27-7,6.31-11.54.69L53.87,23.83A5,5,0,0,1,56.53,15.82Z"/><path class="cls-1" d="M37.32,24.6l-5,5.77a5,5,0,0,0,4.11,8.25l9.15-.6a5,5,0,0,0,3.56-8.13L45,24.73A5,5,0,0,0,37.32,24.6Z"/><path class="cls-1" d="M24,47,15.45,53.7a5,5,0,0,0-.91,7L39.62,93.83a5,5,0,0,0,6.92,1l27.73-20a5,5,0,0,0,.94-7.22L57.53,46.05a5,5,0,0,0-4.19-1.82L26.77,46A5,5,0,0,0,24,47Z"/><path class="cls-1" d="M1.94,71.41,0,85.33a5,5,0,0,0,.16,2.11l7.33,24.51a5,5,0,0,0,7.75,2.6L30.48,103.4a5,5,0,0,0,1-7L10.88,69.07A5,5,0,0,0,1.94,71.41Z"/><path class="cls-1" d="M18.83,132.24l18,10.46a5,5,0,0,0,3.77.52l11.31-2.92a5,5,0,0,0,2.7-7.91L40.22,113.91a5,5,0,0,0-6.91-1L18.39,123.89A5,5,0,0,0,18.83,132.24Z"/><path class="cls-1" d="M71.3,133.54l36.35-12.72a5,5,0,0,0,2.14-8l-24.89-29a5,5,0,0,0-6.72-.79L50.1,103.37a5,5,0,0,0-1,7.12l16.62,21.4A5,5,0,0,0,71.3,133.54Z"/><path class="cls-1" d="M77.25,147.61l10.09,11.94a5,5,0,0,0,4,1.77l28.22-.88a5,5,0,0,0,2.52-.78l11.46-7.27a5,5,0,0,0,1.22-7.35l-13.29-16.55a5,5,0,0,0-5.55-1.59L79.42,139.67A5,5,0,0,0,77.25,147.61Z"/><path class="cls-1" d="M133.51,168.1l22.8,27.61a5,5,0,0,0,8.84-3.53l-1.46-20.95a5,5,0,0,0-1.42-3.15l-12.21-12.46a5,5,0,0,0-6.25-.72l-9.13,5.8A5,5,0,0,0,133.51,168.1Z"/><path class="cls-1" d="M162.74,155.78l11.15,5.13a5,5,0,0,0,6.69-2.58L188.39,140a5,5,0,0,0-5.35-6.9l-27.81,4.2a5,5,0,0,0-2.82,8.44l8.85,9A5,5,0,0,0,162.74,155.78Z"/><path class="cls-1" d="M194.88,165.18,207,163.35a5,5,0,0,0,1.91-.71L232.14,148a5,5,0,0,0,2.27-3.38l1.44-8.31a5,5,0,0,0-5.67-5.8l-28.05,4.22a5,5,0,0,0-3.86,3l-8.73,20.52A5,5,0,0,0,194.88,165.18Z"/><path class="cls-1" d="M212.3,113.24l10.1-23.62a5,5,0,0,1,9.16-.07l9.48,21.2a7.17,7.17,0,0,1-5.43,10l-15.71,2.38A7.15,7.15,0,0,1,212.3,113.24Z"/><path class="cls-1" d="M255.78,113.08l4.09-1.77a6.78,6.78,0,0,0,3.68-4.28l5.61-18a5,5,0,0,0,0-3l-5-15.44c-1.19-3.71-4.82-5.6-8.07-4.22l-15.4,6.51c-3.4,1.44-5,5.84-3.53,9.59l10.67,26.94C249.2,112.79,252.68,114.42,255.78,113.08Z"/><path class="cls-1" d="M230.26,63.36,220.5,37.93a8,8,0,0,1,1.85-8.63l6.39-5.7a5.41,5.41,0,0,1,8.34,1.26l16.85,25.2c2.53,3.79,1.21,9.4-2.62,11.09l-13.47,5.94C234.88,68.39,231.57,66.76,230.26,63.36Z"/><path class="cls-1" d="M199.14,39l-20,13.81a6.5,6.5,0,0,0-2.53,3.35l-5.46,17c-1.62,5.06,3.74,9.67,9.21,7.91l35.25-11.32c3.94-1.26,5.84-5.32,4.11-8.78l-9.77-19.52C208,37.75,202.77,36.54,199.14,39Z"/><path class="cls-1" d="M190.12,14.23l-3.37,7.92c-2.23,5.24,5.47,9.59,11.05,6.26l6-3.58c2.69-1.61,3.57-4.48,2.13-6.88l-2.61-4.34C200.56,9,192.16,9.44,190.12,14.23Z"/><path class="cls-1" d="M139.27.11l38.79,8.14a5,5,0,0,1,3.71,6.48L169.1,52.51A5,5,0,0,1,162,55.35L120.41,33.6a5,5,0,0,1-1.89-7.13L134,2.3A5,5,0,0,1,139.27.11Z"/><path class="cls-1" d="M154.65,99.17l8.11-27.84a5,5,0,0,0-2.48-5.83l-43.93-23a5,5,0,0,0-6.56,1.79L93.84,69.95a5,5,0,0,0,.45,5.9l28.12,32.71a5,5,0,0,0,5.31,1.51l23.64-7.52A5,5,0,0,0,154.65,99.17Z"/><path class="cls-1" d="M128.13,124.75l8.57,10.67a5,5,0,0,0,8.67-1.64L150,118.91a5,5,0,0,0-6.29-6.26l-13.23,4.21A5,5,0,0,0,128.13,124.75Z"/><path class="cls-1" d="M166.26,95.57l42.53-15A5,5,0,0,1,215,87.23l-14,32.61a5,5,0,0,1-3.85,3l-35.68,5.39a5,5,0,0,1-5.52-6.44l7.2-23A5,5,0,0,1,166.26,95.57Z"/></g></g></svg>